<?xml version="1.0" encoding="UTF-8" standalone="no"?>
<!DOCTYPE svg PUBLIC "-//W3C//DTD SVG 1.1//EN"
 "http://www.w3.org/Graphics/SVG/1.1/DTD/svg11.dtd">
<!-- Generated by graphviz version 2.43.0 (0)
 -->
<!-- Title: %3 Pages: 1 -->
<svg width="574pt" height="260pt"
 viewBox="0.00 0.00 573.50 260.00" xmlns="http://www.w3.org/2000/svg" xmlns:xlink="http://www.w3.org/1999/xlink">
<g id="graph0" class="graph" transform="scale(1 1) rotate(0) translate(4 256)">
<title>%3</title>
<polygon fill="white" stroke="transparent" points="-4,4 -4,-256 569.5,-256 569.5,4 -4,4"/>
<!-- &#45;7379954949841066893 -->
<g id="node1" class="node">
<title>&#45;7379954949841066893</title>
<polygon fill="none" stroke="black" points="369,-252 197,-252 197,-216 369,-216 369,-252"/>
<text text-anchor="middle" x="283" y="-229" font-family="Helvetica,sans-Serif" font-size="20.00">Sub(Sum, Sum)</text>
</g>
<!-- &#45;2310393274100698250 -->
<g id="node2" class="node">
<title>&#45;2310393274100698250</title>
<polygon fill="none" stroke="black" points="274,-180 100,-180 100,-144 274,-144 274,-180"/>
<text text-anchor="middle" x="187" y="-157" font-family="Helvetica,sans-Serif" font-size="20.00">Sum(Projection)</text>
</g>
<!-- &#45;2310393274100698250&#45;&gt;&#45;7379954949841066893 -->
<g id="edge1" class="edge">
<title>&#45;2310393274100698250&#45;&gt;&#45;7379954949841066893</title>
<path fill="none" stroke="black" d="M210.73,-180.3C222.94,-189.2 237.99,-200.18 251.18,-209.8"/>
<polygon fill="black" stroke="black" points="249.4,-212.83 259.54,-215.9 253.52,-207.18 249.4,-212.83"/>
</g>
<!-- 6495743725561386480 -->
<g id="node3" class="node">
<title>6495743725561386480</title>
<polygon fill="none" stroke="black" points="274,-108 0,-108 0,-72 274,-72 274,-108"/>
<text text-anchor="middle" x="137" y="-85" font-family="Helvetica,sans-Serif" font-size="20.00">Projection(FromPandas, b)</text>
</g>
<!-- 6495743725561386480&#45;&gt;&#45;2310393274100698250 -->
<g id="edge3" class="edge">
<title>6495743725561386480&#45;&gt;&#45;2310393274100698250</title>
<path fill="none" stroke="black" d="M149.36,-108.3C155.23,-116.53 162.37,-126.52 168.84,-135.58"/>
<polygon fill="black" stroke="black" points="166.12,-137.79 174.78,-143.9 171.82,-133.72 166.12,-137.79"/>
</g>
<!-- 7585412693611152811 -->
<g id="node4" class="node">
<title>7585412693611152811</title>
<polygon fill="none" stroke="black" points="351.5,-36 214.5,-36 214.5,0 351.5,0 351.5,-36"/>
<text text-anchor="middle" x="283" y="-13" font-family="Helvetica,sans-Serif" font-size="20.00">FromPandas</text>
</g>
<!-- 7585412693611152811&#45;&gt;6495743725561386480 -->
<g id="edge4" class="edge">
<title>7585412693611152811&#45;&gt;6495743725561386480</title>
<path fill="none" stroke="black" d="M247.28,-36.12C227.5,-45.61 202.73,-57.49 181.67,-67.58"/>
<polygon fill="black" stroke="black" points="180.1,-64.45 172.6,-71.93 183.13,-70.76 180.1,-64.45"/>
</g>
<!-- &#45;7421998345482993122 -->
<g id="node6" class="node">
<title>&#45;7421998345482993122</title>
<polygon fill="none" stroke="black" points="565.5,-108 292.5,-108 292.5,-72 565.5,-72 565.5,-108"/>
<text text-anchor="middle" x="429" y="-85" font-family="Helvetica,sans-Serif" font-size="20.00">Projection(FromPandas, a)</text>
</g>
<!-- 7585412693611152811&#45;&gt;&#45;7421998345482993122 -->
<g id="edge6" class="edge">
<title>7585412693611152811&#45;&gt;&#45;7421998345482993122</title>
<path fill="none" stroke="black" d="M318.72,-36.12C338.5,-45.61 363.27,-57.49 384.33,-67.58"/>
<polygon fill="black" stroke="black" points="382.87,-70.76 393.4,-71.93 385.9,-64.45 382.87,-70.76"/>
</g>
<!-- &#45;7629345143226035385 -->
<g id="node5" class="node">
<title>&#45;7629345143226035385</title>
<polygon fill="none" stroke="black" points="491,-180 317,-180 317,-144 491,-144 491,-180"/>
<text text-anchor="middle" x="404" y="-157" font-family="Helvetica,sans-Serif" font-size="20.00">Sum(Projection)</text>
</g>
<!-- &#45;7629345143226035385&#45;&gt;&#45;7379954949841066893 -->
<g id="edge2" class="edge">
<title>&#45;7629345143226035385&#45;&gt;&#45;7379954949841066893</title>
<path fill="none" stroke="black" d="M374.4,-180.12C358.43,-189.36 338.54,-200.87 321.39,-210.79"/>
<polygon fill="black" stroke="black" points="319.62,-207.77 312.71,-215.81 323.12,-213.83 319.62,-207.77"/>
</g>
<!-- &#45;7421998345482993122&#45;&gt;&#45;7629345143226035385 -->
<g id="edge5" class="edge">
<title>&#45;7421998345482993122&#45;&gt;&#45;7629345143226035385</title>
<path fill="none" stroke="black" d="M422.82,-108.3C420,-116.19 416.61,-125.7 413.48,-134.45"/>
<polygon fill="black" stroke="black" points="410.18,-133.3 410.11,-143.9 416.77,-135.66 410.18,-133.3"/>
</g>
</g>
</svg>
